# xmcd CD database file generated by Grip 3.3.1
# 
# Track frame offsets:
#       182
#       14955
#       29045
#       43582
#       55340
#       68642
#       84312
#       94517
#       105785
#       119832
# 
# Disc length: 2177 seconds
# 
# Revision: 1
# Processed by: cddbd v1.5.1PL2 Copyright (c) Steve Scherf et al.
# Submitted via: Grip 3.3.1
# 
DISCID=82087f0a
DTITLE=Various Artist - No 1 Bourbon Street
DYEAR=1900
DGENRE=Blues
TTITLE0=Billie Holiday - Lover Man
TTITLE1=Erroll Garner - Stormy Weather
TTITLE2=Fats Waller - Honey Hush
TTITLE3=Bunny Berigan - Dardanella
TTITLE4=Louis Armstrong - C'est si bon
TTITLE5=Bessie Smith - St Louis Gal Song
TTITLE6=Jelly Roll Morton - Ballin' the Jack
TTITLE7=Bix Beiderbecke - Riverboat Shuffle
TTITLE8=Django Reinhardt - Sweet Georgia Brown
TTITLE9=Thelonius Monk - Epistrophy
EXTD=
EXTT0=
EXTT1=
EXTT2=
EXTT3=
EXTT4=
EXTT5=
EXTT6=
EXTT7=
EXTT8=
EXTT9=
PLAYORDER=
